<?xml version="1.0" encoding="utf-8"?>
<!-- Generator: Adobe Illustrator 16.0.4, SVG Export Plug-In . SVG Version: 6.00 Build 0)  -->
<!DOCTYPE svg PUBLIC "-//W3C//DTD SVG 1.1//EN" "http://www.w3.org/Graphics/SVG/1.1/DTD/svg11.dtd">
<svg version="1.1" id="Logo" xmlns="http://www.w3.org/2000/svg" xmlns:xlink="http://www.w3.org/1999/xlink" x="0px" y="0px"
	 width="815.273px" height="137.853px" viewBox="0 0 815.273 137.853" enable-background="new 0 0 815.273 137.853"
	 xml:space="preserve">
<g id="Text">
	<g>
		<rect x="-31.274" y="42.293" fill="none" width="678.857" height="95.918"/>
		<path fill="#CCCCCC" d="M72.895,48.768c5.945,5.742,9.247,12.266,9.903,19.57H71.431c-1.266-5.546-3.789-9.941-7.567-13.184
			c-3.779-3.242-9.083-4.863-15.911-4.863c-8.325,0-15.048,2.981-20.169,8.943s-7.681,15.101-7.681,27.416
			c0,10.087,2.312,18.268,6.936,24.542c4.624,6.275,11.521,9.412,20.692,9.412c8.442,0,14.87-3.301,19.283-9.902
			c2.34-3.476,4.086-8.046,5.238-13.711h11.367c-1.004,9.063-4.325,16.66-9.962,22.793c-6.757,7.383-15.871,11.074-27.338,11.074
			c-9.885,0-18.187-3.028-24.905-9.088c-8.842-8.012-13.263-20.384-13.263-37.114c0-12.703,3.32-23.12,9.961-31.25
			c7.181-8.833,17.084-13.25,29.709-13.25C58.59,40.155,66.949,43.026,72.895,48.768z"/>
		<path fill="#CCCCCC" d="M99.79,42.499h62.461v10.547h-51.094v26.133h47.227v9.961h-47.227v29.18h51.973v10.254H99.79V42.499z"/>
		<path fill="#CCCCCC" d="M180.122,42.499h39.125c6.443,0,11.756,0.958,15.938,2.871c7.939,3.672,11.91,10.45,11.91,20.332
			c0,5.156-1.065,9.375-3.193,12.656c-2.129,3.281-5.108,5.918-8.936,7.91c3.359,1.368,5.889,3.164,7.588,5.391
			s2.646,5.84,2.842,10.84l0.41,11.543c0.117,3.281,0.39,5.723,0.82,7.324c0.703,2.734,1.953,4.492,3.75,5.273v1.934h-14.297
			c-0.391-0.742-0.703-1.699-0.938-2.871s-0.43-3.438-0.586-6.797l-0.703-14.355c-0.266-5.625-2.296-9.394-6.091-11.309
			c-2.165-1.055-5.561-1.582-10.191-1.582h-25.789v36.914h-11.66V42.499z M217.994,81.932c5.317,0,9.524-1.093,12.621-3.281
			c3.096-2.187,4.645-6.132,4.645-11.836c0-6.132-2.165-10.312-6.496-12.539c-2.318-1.172-5.414-1.758-9.288-1.758h-27.693v29.414
			H217.994z"/>
		<path fill="#CCCCCC" d="M270.093,42.499l24.727,73.301l24.434-73.301h13.066l-31.406,86.074H288.55l-31.348-86.074H270.093z"/>
		<path fill="#CCCCCC" d="M345.942,42.499h11.777v86.074h-11.777V42.499z"/>
		<path fill="#CCCCCC" d="M384.263,100.799c0.264,4.883,1.373,8.848,3.33,11.895c3.725,5.703,10.291,8.555,19.698,8.555
			c4.214,0,8.052-0.625,11.515-1.875c6.698-2.422,10.047-6.758,10.047-13.008c0-4.688-1.419-8.027-4.257-10.02
			c-2.877-1.953-7.38-3.652-13.51-5.098l-11.296-2.637c-7.379-1.718-12.602-3.613-15.666-5.684
			c-5.299-3.593-7.947-8.965-7.947-16.113c0-7.734,2.604-14.082,7.812-19.043c5.207-4.96,12.582-7.441,22.123-7.441
			c8.781,0,16.241,2.178,22.381,6.533c6.139,4.356,9.208,11.319,9.208,20.889h-10.957c-0.562-4.609-1.761-8.145-3.596-10.605
			c-3.408-4.492-9.194-6.738-17.358-6.738c-6.592,0-11.329,1.446-14.213,4.336c-2.884,2.891-4.325,6.25-4.325,10.078
			c0,4.219,1.703,7.305,5.109,9.258c2.233,1.25,7.286,2.812,15.158,4.688l11.695,2.754c5.64,1.329,9.992,3.145,13.058,5.449
			c5.299,4.024,7.948,9.864,7.948,17.52c0,9.531-3.381,16.348-10.144,20.449c-6.762,4.102-14.619,6.152-23.57,6.152
			c-10.439,0-18.61-2.734-24.515-8.203c-5.908-5.43-8.803-12.792-8.686-22.09H384.263z"/>
		<path fill="#CCCCCC" d="M481.803,42.499h13.162l31.24,86.074h-12.773l-8.986-25.781h-33.768l-9.335,25.781H449.39L481.803,42.499z
			 M501.137,93.299l-13.252-38.027l-13.77,38.027H501.137z"/>
		<path fill="#CCCCCC" d="M538.129,42.499h39.125c6.443,0,11.756,0.958,15.938,2.871c7.939,3.672,11.91,10.45,11.91,20.332
			c0,5.156-1.064,9.375-3.193,12.656s-5.107,5.918-8.936,7.91c3.359,1.368,5.889,3.164,7.588,5.391s2.646,5.84,2.842,10.84
			l0.41,11.543c0.117,3.281,0.391,5.723,0.82,7.324c0.703,2.734,1.953,4.492,3.75,5.273v1.934h-14.297
			c-0.391-0.742-0.703-1.699-0.938-2.871s-0.43-3.438-0.586-6.797l-0.703-14.355c-0.266-5.625-2.295-9.394-6.09-11.309
			c-2.164-1.055-5.562-1.582-10.191-1.582H549.79v36.914h-11.66V42.499z M576.002,81.932c5.316,0,9.523-1.093,12.619-3.281
			c3.098-2.187,4.645-6.132,4.645-11.836c0-6.132-2.164-10.312-6.496-12.539c-2.316-1.172-5.412-1.758-9.287-1.758H549.79v29.414
			H576.002z"/>
		<path fill="#CCCCCC" d="M626.02,42.499h11.777v86.074H626.02V42.499z"/>
	</g>
	<g>
		<rect x="733.539" y="42.293" fill="none" width="81.734" height="95.918"/>
		<path fill="#CCCCCC" d="M750.295,100.799c0.264,4.883,1.373,8.848,3.33,11.895c3.725,5.703,10.291,8.555,19.699,8.555
			c4.213,0,8.051-0.625,11.514-1.875c6.699-2.422,10.047-6.758,10.047-13.008c0-4.688-1.418-8.027-4.256-10.02
			c-2.877-1.953-7.381-3.652-13.51-5.098l-11.297-2.637c-7.379-1.718-12.602-3.613-15.666-5.684
			c-5.299-3.593-7.947-8.965-7.947-16.113c0-7.734,2.604-14.082,7.812-19.043c5.207-4.96,12.582-7.441,22.123-7.441
			c8.781,0,16.24,2.178,22.381,6.533c6.139,4.356,9.207,11.319,9.207,20.889h-10.957c-0.562-4.609-1.76-8.145-3.596-10.605
			c-3.408-4.492-9.193-6.738-17.357-6.738c-6.592,0-11.33,1.446-14.213,4.336c-2.885,2.891-4.326,6.25-4.326,10.078
			c0,4.219,1.703,7.305,5.109,9.258c2.234,1.25,7.287,2.812,15.158,4.688l11.695,2.754c5.641,1.329,9.992,3.145,13.059,5.449
			c5.299,4.024,7.947,9.864,7.947,17.52c0,9.531-3.381,16.348-10.143,20.449s-14.619,6.152-23.57,6.152
			c-10.439,0-18.611-2.734-24.516-8.203c-5.908-5.43-8.803-12.792-8.686-22.09H750.295z"/>
	</g>
</g>
<g id="Beer">
	<path fill="#CCCCCC" d="M665.328,128.481h58.467c5.381,0,9.744-4.131,9.744-9.228v-85h-77.955v85
		C655.583,124.35,659.947,128.481,665.328,128.481z"/>
	<g>
		<g>
			<g>
				<g>
					<path fill="#594A42" d="M668.102,124.511h52.85c4.865,0,8.809-3.943,8.809-8.809V34.584h-70.467v81.119
						C659.293,120.568,663.237,124.511,668.102,124.511z"/>
					<path fill="#EFBA1C" d="M672.22,112.154h44.612c4.574,0,8.281-3.709,8.281-8.283V34.584h-61.176v69.287
						C663.938,108.445,667.646,112.154,672.22,112.154z"/>
					<g>
						<path fill="#D9A911" d="M712.224,43.824v59.089c0,1.826,1.48,3.307,3.306,3.307c1.826,0,3.307-1.48,3.307-3.307V43.824
							c0-1.826-1.48-3.306-3.307-3.306C713.705,40.518,712.224,41.998,712.224,43.824z"/>
						<path fill="#D9A911" d="M698.221,43.824v59.089c0,1.826,1.48,3.307,3.306,3.307c1.826,0,3.307-1.48,3.307-3.307V43.824
							c0-1.826-1.48-3.306-3.307-3.306C699.702,40.518,698.221,41.998,698.221,43.824z"/>
						<path fill="#D9A911" d="M684.218,43.824v59.089c0,1.826,1.48,3.307,3.307,3.307c1.825,0,3.306-1.48,3.306-3.307V43.824
							c0-1.826-1.48-3.306-3.306-3.306C685.699,40.518,684.218,41.998,684.218,43.824z"/>
						<path fill="#D9A911" d="M670.216,43.824v59.089c0,1.826,1.479,3.307,3.306,3.307s3.307-1.48,3.307-3.307V43.824
							c0-1.826-1.48-3.306-3.307-3.306S670.216,41.998,670.216,43.824z"/>
					</g>
					<g>
						<path fill="#FFFFFF" d="M690.653,55.137c2.773,0.145,5.069-2.061,5.069-4.803V36.827c0-1.239,1.004-2.243,2.243-2.243h31.863
							c0.504-1.213,0.785-2.541,0.785-3.936c0-5.678-4.604-10.281-10.282-10.281c0.001-7.342-5.95-13.293-13.292-13.293
							c-3.153,0-6.048,1.104-8.327,2.939c-2.846-4.618-7.934-7.706-13.757-7.706c-8.928,0-16.166,7.238-16.166,16.166
							c0,0.644,0.048,1.276,0.121,1.9c-0.04-0.001-0.08-0.006-0.121-0.006c-5.678,0-10.281,4.603-10.281,10.281
							c0,1.395,0.281,2.723,0.784,3.936h10.458c1.239,0,2.243,1.004,2.243,2.243v30.67c0,2.604,1.95,4.939,4.552,5.076
							c2.774,0.145,5.069-2.062,5.069-4.803V36.827c0-1.239,1.005-2.243,2.243-2.243s2.243,1.004,2.243,2.243v13.235
							C686.101,52.667,688.051,55.001,690.653,55.137z"/>
						<circle fill="#FFFFFF" cx="676.788" cy="80.226" r="4.535"/>
					</g>
				</g>
			</g>
		</g>
	</g>
</g>
<rect id="_x3C_Slice_x3E_" x="-27.66" y="3.307" fill="none" width="871" height="125"/>
<g>
</g>
<g>
</g>
<g>
</g>
<g>
</g>
<g>
</g>
<g>
</g>
<g>
</g>
<g>
</g>
<g>
</g>
<g>
</g>
<g>
</g>
<g>
</g>
<g>
</g>
<g>
</g>
<g>
</g>
</svg>
